<?xml version="1.0" encoding="UTF-8"?>
<svg width="48px" height="32px" viewBox="0 0 48 32" version="1.1" xmlns="http://www.w3.org/2000/svg" xmlns:xlink="http://www.w3.org/1999/xlink">
    <title>mastercard-color_large</title>
    <g id="Cards" stroke="none" stroke-width="1" fill="none" fill-rule="evenodd">
        <g id="Payment-Methods" transform="translate(-208.000000, -192.000000)" fill-rule="nonzero">
            <g id="mastercard-color_large" transform="translate(208.000000, 192.000000)">
                <rect id="card_bg" fill="#F2F0EC" x="0" y="0" width="48" height="32" rx="4"></rect>
                <g id="mastercard" transform="translate(4.000000, 3.000000)">
                    <g id="Group" opacity="0" fill="#FFFFFF">
                        <rect id="Rectangle" x="0.65" y="0.2" width="38.71" height="25.6"></rect>
                    </g>
                    <rect id="Rectangle" fill="#F26122" x="14.9" y="4.66" width="10.21" height="16.68"></rect>
                    <path d="M16,13 C15.9831352,9.7535343 17.4577071,6.6790519 20,4.66 C15.6502514,1.23929485 9.401948,1.73602007 5.64729399,5.8010059 C1.89263998,9.86599173 1.89263998,16.1340083 5.64729399,20.1989941 C9.401948,24.2639799 15.6502514,24.7607051 20,21.34 C17.4577071,19.3209481 15.9831352,16.2464657 16,13 Z" id="Path" fill="#EA1D25"></path>
                    <path d="M36.14,19.57 L36.14,19.23 L36.29,19.23 L36.29,19.16 L35.94,19.16 L35.94,19.23 L36.08,19.23 L36.08,19.57 L36.14,19.57 Z M36.82,19.57 L36.82,19.16 L36.72,19.16 L36.6,19.45 L36.47,19.16 L36.37,19.16 L36.37,19.57 L36.44,19.57 L36.44,19.26 L36.56,19.53 L36.64,19.53 L36.75,19.26 L36.75,19.57 L36.82,19.57 Z" id="Shape" fill="#F69E1E"></path>
                    <path d="M37.16,13 C37.1573869,17.0593443 34.838851,20.7613981 31.1878671,22.5358273 C27.5368832,24.3102566 23.193465,23.8460056 20,21.34 C24.600057,17.7179566 25.3966531,11.0542961 21.78,6.45 C21.2615505,5.78327007 20.663815,5.18217649 20,4.66 C23.193465,2.15399441 27.5368832,1.68974344 31.1878671,3.46417268 C34.838851,5.23860192 37.1573869,8.94065575 37.16,13 L37.16,13 Z" id="Path" fill="#F69E1E"></path>
                </g>
            </g>
        </g>
    </g>
</svg>