<?xml version="1.0" encoding="UTF-8"?>
<svg width="24px" height="16px" viewBox="0 0 24 16" version="1.1" xmlns="http://www.w3.org/2000/svg" xmlns:xlink="http://www.w3.org/1999/xlink">
    <title>americanexpress-color</title>
    <g id="Cards" stroke="none" stroke-width="1" fill="none" fill-rule="evenodd">
        <g id="Payment-Methods" transform="translate(-288.000000, -192.000000)" fill-rule="nonzero">
            <g id="americanexpress-color" transform="translate(288.000000, 192.000000)">
                <rect id="Rectangle" fill="#FFFFFF" x="0" y="0" width="24" height="16" rx="4"></rect>
                <g id="amex" fill="#296DB6">
                    <path d="M4.44,8.95 L4.44,13.03 L8.57,13.03 L9,12.42 L9.42,13.03 L11.945,13.03 L11.945,12.11 L12.225,12.11 C12.4791762,12.1122219 12.7321668,12.0751166 12.975,12 L12.975,13.03 L14.69,13.03 L14.69,12.3 L15.27,13.03 L23.08,13.03 C23.4010247,13.035606 23.7168967,12.948828 23.99,12.78 L23.99,14.5 C23.7612156,15.3861124 22.9601625,16.0038912 22.045,16.0000183 L2,16.0000183 C0.8954305,16.0000183 0,15.1045695 0,14 L0,7.7 L1.14,7.7 L1.375,7.09 L1.935,7.09 L2.165,7.7 L11.335,7.7 L11.335,6.97 L11.915,7.7 L14.32,7.7 L14.32,7.33 C14.6726633,7.58103042 15.0972534,7.71086377 15.53,7.7 L16.965,7.7 L17.195,7.09 L17.755,7.09 L18,7.7 L20.45,7.7 L20.45,6.91 L20.95,7.7 L22.64,7.7 L22.64,3.62 L20.845,3.62 L20.845,4.45 L20.31,3.62 L18.74,3.62 L18.74,4.67 L18.24,3.62 L15.57,3.62 C15.1182987,3.60691218 14.6761986,3.75192102 14.32,4.03 L14.32,3.62 L5.5,3.62 L5.2,4.5 L4.9,3.6 L2.9,3.6 L2.9,4.65 L2.43,3.6 L0.8,3.6 L0,5.5 L0,2 C0,0.8954305 0.8954305,-8.6373034e-05 2,-8.6373034e-05 L22.045,-8.6373034e-05 C22.9638786,-0.00849368136 23.7703098,0.610251478 24,1.5 L24,8.95 L9.43,8.95 L9,9.55 L8.58,8.95 L4.44,8.95 Z" id="Path"></path>
                    <path d="M7.355,10.18 L7.355,9.58 L5.09,9.58 L5.09,12.4 L7.355,12.4 L7.355,11.8 L5.77,11.8 L5.77,11.3 L7.325,11.3 L7.325,10.69 L5.77,10.69 L5.77,10.19 L7.355,10.18 Z M9.4,11 L10.53,9.6 L9.7,9.6 L9,10.47 L8.305,9.58 L7.455,9.58 L8.6,11 L7.5,12.4 L8.32,12.4 L9,11.5 L9.68,12.41 L10.54,12.41 L9.4,11 Z M12.215,9.6 L10.66,9.6 L10.66,12.4 L11.345,12.4 L11.345,11.47 L12.195,11.47 C12.457055,11.4898591 12.7152786,11.3979163 12.9058131,11.2169085 C13.0963476,11.0359007 13.2014032,10.7827284 13.195,10.52 C13.2059627,10.2603799 13.1047995,10.0085734 12.9172695,9.82869772 C12.7297395,9.64882199 12.4739383,9.558234 12.215,9.58 L12.215,9.6 Z M12.155,10.89 L11.345,10.89 L11.345,10.18 L12.155,10.18 C12.3455382,10.18 12.5,10.3344618 12.5,10.525 C12.5,10.7155382 12.3455382,10.87 12.155,10.87 L12.155,10.89 Z M15.3,11.39 C15.7915334,11.3320101 16.1429899,10.8865334 16.085,10.395 C16.0270101,9.90346658 15.5815334,9.55201011 15.09,9.61 L13.56,9.61 L13.56,12.4 L14.24,12.4 L14.24,11.4 L14.55,11.4 L15.39,12.4 L16.245,12.4 L15.3,11.39 Z M15.03,10.83 L14.24,10.83 L14.24,10.18 L15.03,10.18 C15.1188945,10.1684299 15.2084451,10.1959075 15.2755518,10.2553448 C15.3426584,10.3147821 15.3807498,10.4003589 15.38,10.49 C15.3824716,10.5801926 15.3448827,10.6668511 15.2773402,10.7266744 C15.2097977,10.7864978 15.119234,10.813346 15.03,10.8 L15.03,10.83 Z M18.68,10.21 L18.68,9.61 L16.405,9.61 L16.405,12.4 L18.68,12.4 L18.68,11.8 L17.095,11.8 L17.095,11.3 L18.64,11.3 L18.64,10.69 L17.095,10.69 L17.095,10.19 L18.68,10.21 Z M20.565,10.71 L19.91,10.71 C19.8087628,10.7303484 19.7052472,10.6876329 19.6478206,10.6018121 C19.590394,10.5159913 19.590394,10.4040087 19.6478206,10.3181879 C19.7052472,10.2323671 19.8087628,10.1896516 19.91,10.21 L21.125,10.21 L21.395,9.61 L19.93,9.61 C19.6807365,9.58111602 19.4311406,9.6612646 19.2452931,9.82986851 C19.0594456,9.99847242 18.9554478,10.2391099 18.96,10.49 C18.9448088,10.723454 19.0345347,10.9515181 19.204725,11.1120385 C19.3749153,11.2725589 19.6078325,11.3488059 19.84,11.32 L20.5,11.32 C20.6012372,11.2996516 20.7047528,11.3423671 20.7621794,11.4281879 C20.819606,11.5140087 20.819606,11.6259913 20.7621794,11.7118121 C20.7047528,11.7976329 20.6012372,11.8403484 20.5,11.82 L19.04,11.82 L19.04,12.42 L20.5,12.42 C20.7519704,12.4406042 21.0005377,12.3512193 21.1816825,12.1748668 C21.3628272,11.9985142 21.4588428,11.7524322 21.445,11.5 C21.4576344,11.2688896 21.3663114,11.0442283 21.1960147,10.8874779 C21.025718,10.7307275 20.7942739,10.6582964 20.565,10.69 L20.565,10.71 Z M22.515,10.21 L23.73,10.21 L24,9.6 L24,9.6 L22.535,9.6 C22.2857365,9.57111602 22.0361406,9.6512646 21.8502931,9.81986851 C21.6644456,9.98847242 21.5604478,10.2291099 21.565,10.48 C21.5498088,10.713454 21.6395347,10.9415181 21.809725,11.1020385 C21.9799153,11.2625589 22.2128325,11.3388059 22.445,11.31 L23.09,11.31 C23.1912372,11.2896516 23.2947528,11.3323671 23.3521794,11.4181879 C23.409606,11.5040087 23.409606,11.6159913 23.3521794,11.7018121 C23.2947528,11.7876329 23.1912372,11.8303484 23.09,11.81 L21.645,11.81 L21.645,12.41 L23.08,12.41 C23.4832961,12.4501319 23.8623163,12.2111844 24,11.83 L24,11.16 C23.8558746,10.8435739 23.5258792,10.6544301 23.18,10.69 L22.5,10.69 C22.3987628,10.7103484 22.2952472,10.6676329 22.2378206,10.5818121 C22.180394,10.4959913 22.180394,10.3840087 22.2378206,10.2981879 C22.2952472,10.2123671 22.3987628,10.1696516 22.5,10.19 L22.515,10.21 Z" id="Shape"></path>
                    <path d="M2.115,4.25 L1.225,4.25 L0,7.07 L0.74,7.07 L1,6.5 L2.315,6.5 L2.555,7.09 L3.325,7.09 L2.115,4.25 Z M1.19,5.93 L1.465,5.27 L1.645,4.83 L1.825,5.27 L2.095,5.93 L1.19,5.93 Z M5.85,4.25 L5.3,5.88 L5.21,6.19 L5.21,6.19 L5.12,5.88 L4.56,4.25 L3.455,4.25 L3.455,7.07 L4.12,7.07 L4.12,5.22 L4.12,4.79 L4.12,4.79 L4.26,5.22 L4.9,7.07 L5.5,7.07 L6.155,5.22 L6.285,4.79 L6.285,4.79 L6.285,5.22 L6.285,7.07 L6.945,7.07 L6.945,4.25 L5.85,4.25 Z M9.75,4.85 L9.75,4.25 L7.5,4.25 L7.5,7.07 L9.75,7.07 L9.75,6.47 L8.165,6.47 L8.165,5.97 L9.71,5.97 L9.71,5.36 L8.165,5.36 L8.165,4.86 L9.75,4.85 Z M11.955,6.03 C12.4026352,5.97602825 12.7359713,5.59074365 12.725,5.14 C12.7286338,4.88306127 12.6204124,4.63722944 12.4284607,4.46639246 C12.236509,4.29555548 11.9797824,4.21658345 11.725,4.25 L10.2,4.25 L10.2,7.07 L10.895,7.07 L10.895,6.07 L11.205,6.07 L12.045,7.07 L12.895,7.07 L11.955,6.03 Z M11.685,5.47 L10.895,5.47 L10.895,4.85 L11.685,4.85 C11.7735565,4.84009486 11.8621651,4.86816036 11.9288708,4.92724259 C11.9955766,4.98632483 12.0341378,5.07089543 12.035,5.16 C12.0374716,5.25019264 11.9998827,5.33685108 11.9323402,5.39667443 C11.8647977,5.45649778 11.774234,5.48334597 11.685,5.47 L11.685,5.47 Z M13.055,4.25 L13.055,7.07 L13.74,7.07 L13.74,4.25 L13.055,4.25 Z M15.555,4.86 L16.29,4.86 L16.29,4.25 L15.5,4.25 C15.128115,4.22649398 14.7645584,4.36685044 14.5049454,4.63415563 C14.2453325,4.90146082 14.1156484,5.26895968 14.15,5.64 L14.15,5.68 C14.1082253,6.04573262 14.229781,6.41128477 14.4822514,6.67917316 C14.7347217,6.94706156 15.0924356,7.09004738 15.46,7.07 L15.5,7.07 L15.775,6.47 L15.55,6.47 C15.3424926,6.48066514 15.1409712,6.39859336 14.9999571,6.24598903 C14.858943,6.0933847 14.7930114,5.88602106 14.82,5.68 L14.82,5.64 C14.7962283,5.435587 14.8636091,5.23106939 15.0042296,5.08081741 C15.14485,4.93056542 15.3444622,4.84980281 15.55,4.86 L15.555,4.86 Z M17.945,4.25 L17.045,4.25 L15.835,7.07 L16.565,7.07 L16.805,6.5 L18.14,6.5 L18.38,7.09 L19.15,7.09 L17.945,4.25 Z M17.025,5.93 L17.285,5.27 L17.465,4.83 L17.465,4.83 L17.635,5.27 L17.905,5.93 L17.025,5.93 Z M21.305,4.25 L21.305,5.75 L21.305,6.09 L21.305,6.09 L21.115,5.77 L20.115,4.27 L19.28,4.27 L19.28,7.09 L19.95,7.09 L19.95,5.5 L19.95,5.17 L19.95,5.17 L20.13,5.48 L21.175,7.07 L22,7.07 L22,4.25 L21.305,4.25 Z" id="Shape"></path>
                </g>
            </g>
        </g>
    </g>
</svg>