<?xml version="1.0" encoding="UTF-8"?>
<svg width="48px" height="32px" viewBox="0 0 48 32" version="1.1" xmlns="http://www.w3.org/2000/svg" xmlns:xlink="http://www.w3.org/1999/xlink">
    <title>americanexpress-color-large</title>
    <g id="Cards" stroke="none" stroke-width="1" fill="none" fill-rule="evenodd">
        <g id="Payment-Methods" transform="translate(-321.000000, -192.000000)" fill-rule="nonzero">
            <g id="americanexpress-color-large" transform="translate(321.000000, 192.000000)">
                <rect id="Rectangle" fill="#FFFFFF" x="0" y="0" width="48" height="32" rx="4"></rect>
                <g id="amex" fill="#296DB6">
                    <path d="M8.88,17.9 L8.88,26.06 L17.14,26.06 L18,24.84 L18.84,26.06 L23.89,26.06 L23.89,24.22 L24.45,24.22 C24.9583524,24.2244438 25.4643336,24.1502332 25.95,24 L25.95,26.06 L29.38,26.06 L29.38,24.6 L30.54,26.06 L46.16,26.06 C46.8020494,26.0712121 47.4337935,25.897656 47.98,25.56 L47.98,29 C47.5224312,30.7722249 45.920325,32.0077823 44.09,32.0000366 L4,32.0000366 C1.790861,32.0000366 0,30.209139 0,28 L0,15.4 L2.28,15.4 L2.75,14.18 L3.87,14.18 L4.33,15.4 L22.67,15.4 L22.67,13.94 L23.83,15.4 L28.64,15.4 L28.64,14.66 C29.3453265,15.1620608 30.1945068,15.4217275 31.06,15.4 L33.93,15.4 L34.39,14.18 L35.51,14.18 L36,15.4 L40.9,15.4 L40.9,13.82 L41.9,15.4 L45.28,15.4 L45.28,7.24 L41.69,7.24 L41.69,8.9 L40.62,7.24 L37.48,7.24 L37.48,9.34 L36.48,7.24 L31.14,7.24 C30.2365974,7.21382437 29.3523972,7.50384203 28.64,8.06 L28.64,7.24 L11,7.24 L10.4,9 L9.8,7.2 L5.8,7.2 L5.8,9.3 L4.86,7.2 L1.6,7.2 L0,11 L0,4 C0,1.790861 1.790861,-0.000172746068 4,-0.000172746068 L44.09,-0.000172746068 C45.9277572,-0.0169873627 47.5406196,1.22050296 48,3 L48,17.9 L18.86,17.9 L18,19.1 L17.16,17.9 L8.88,17.9 Z" id="Path"></path>
                    <path d="M14.71,20.36 L14.71,19.16 L10.18,19.16 L10.18,24.8 L14.71,24.8 L14.71,23.6 L11.54,23.6 L11.54,22.6 L14.65,22.6 L14.65,21.38 L11.54,21.38 L11.54,20.38 L14.71,20.36 Z M18.8,22 L21.06,19.2 L19.4,19.2 L18,20.94 L16.61,19.16 L14.91,19.16 L17.2,22 L15,24.8 L16.64,24.8 L18,23 L19.36,24.82 L21.08,24.82 L18.8,22 Z M24.43,19.2 L21.32,19.2 L21.32,24.8 L22.69,24.8 L22.69,22.94 L24.39,22.94 C24.91411,22.9797183 25.4305572,22.7958325 25.8116262,22.433817 C26.1926951,22.0718015 26.4028063,21.5654567 26.39,21.04 C26.4119254,20.5207598 26.2095991,20.0171469 25.8345391,19.6573954 C25.4594791,19.297644 24.9478765,19.116468 24.43,19.16 L24.43,19.2 Z M24.31,21.78 L22.69,21.78 L22.69,20.36 L24.31,20.36 C24.6910765,20.36 25,20.6689235 25,21.05 C25,21.4310765 24.6910765,21.74 24.31,21.74 L24.31,21.78 Z M30.6,22.78 C31.5830668,22.6640202 32.2859798,21.7730668 32.17,20.79 C32.0540202,19.8069332 31.1630668,19.1040202 30.18,19.22 L27.12,19.22 L27.12,24.8 L28.48,24.8 L28.48,22.8 L29.1,22.8 L30.78,24.8 L32.49,24.8 L30.6,22.78 Z M30.06,21.66 L28.48,21.66 L28.48,20.36 L30.06,20.36 C30.2377889,20.3368597 30.4168903,20.3918149 30.5511035,20.5106896 C30.6853168,20.6295642 30.7614996,20.8007178 30.76,20.98 C30.7649432,21.1603853 30.6897654,21.3337022 30.5546804,21.4533489 C30.4195954,21.5729956 30.238468,21.6266919 30.06,21.6 L30.06,21.66 Z M37.36,20.42 L37.36,19.22 L32.81,19.22 L32.81,24.8 L37.36,24.8 L37.36,23.6 L34.19,23.6 L34.19,22.6 L37.28,22.6 L37.28,21.38 L34.19,21.38 L34.19,20.38 L37.36,20.42 Z M41.13,21.42 L39.82,21.42 C39.6175256,21.4606969 39.4104945,21.3752658 39.2956412,21.2036242 C39.1807879,21.0319825 39.1807879,20.8080175 39.2956412,20.6363758 C39.4104945,20.4647342 39.6175256,20.3793031 39.82,20.42 L42.25,20.42 L42.79,19.22 L39.86,19.22 C39.361473,19.162232 38.8622811,19.3225292 38.4905862,19.659737 C38.1188912,19.9969448 37.9108956,20.4782198 37.92,20.98 C37.8896176,21.446908 38.0690695,21.9030362 38.4094501,22.224077 C38.7498307,22.5451178 39.215665,22.6976118 39.68,22.64 L41,22.64 C41.2024744,22.5993031 41.4095055,22.6847342 41.5243588,22.8563758 C41.6392121,23.0280175 41.6392121,23.2519825 41.5243588,23.4236242 C41.4095055,23.5952658 41.2024744,23.6806969 41,23.64 L38.08,23.64 L38.08,24.84 L41,24.84 C41.5039409,24.8812084 42.0010755,24.7024386 42.3633649,24.3497335 C42.7256544,23.9970284 42.9176855,23.5048644 42.89,23 C42.9152688,22.5377792 42.7326228,22.0884565 42.3920293,21.7749558 C42.0514359,21.461455 41.5885478,21.3165928 41.13,21.38 L41.13,21.42 Z M45.03,20.42 L47.46,20.42 L48,19.2 L48,19.2 L45.07,19.2 C44.571473,19.142232 44.0722811,19.3025292 43.7005862,19.639737 C43.3288912,19.9769448 43.1208956,20.4582198 43.13,20.96 C43.0996176,21.426908 43.2790695,21.8830362 43.6194501,22.204077 C43.9598307,22.5251178 44.425665,22.6776118 44.89,22.62 L46.18,22.62 C46.3824744,22.5793031 46.5895055,22.6647342 46.7043588,22.8363758 C46.8192121,23.0080175 46.8192121,23.2319825 46.7043588,23.4036242 C46.5895055,23.5752658 46.3824744,23.6606969 46.18,23.62 L43.29,23.62 L43.29,24.82 L46.16,24.82 C46.9665922,24.9002638 47.7246327,24.4223687 48,23.66 L48,22.32 C47.7117492,21.6871478 47.0517583,21.3088603 46.36,21.38 L45,21.38 C44.7975256,21.4206969 44.5904945,21.3352658 44.4756412,21.1636242 C44.3607879,20.9919825 44.3607879,20.7680175 44.4756412,20.5963758 C44.5904945,20.4247342 44.7975256,20.3393031 45,20.38 L45.03,20.42 Z" id="Shape"></path>
                    <path d="M4.23,8.5 L2.45,8.5 L0,14.14 L1.48,14.14 L2,13 L4.63,13 L5.11,14.18 L6.65,14.18 L4.23,8.5 Z M2.38,11.86 L2.93,10.54 L3.29,9.66 L3.65,10.54 L4.19,11.86 L2.38,11.86 Z M11.7,8.5 L10.6,11.76 L10.42,12.38 L10.42,12.38 L10.24,11.76 L9.12,8.5 L6.91,8.5 L6.91,14.14 L8.24,14.14 L8.24,10.44 L8.24,9.58 L8.24,9.58 L8.52,10.44 L9.8,14.14 L11,14.14 L12.31,10.44 L12.57,9.58 L12.57,9.58 L12.57,10.44 L12.57,14.14 L13.89,14.14 L13.89,8.5 L11.7,8.5 Z M19.5,9.7 L19.5,8.5 L15,8.5 L15,14.14 L19.5,14.14 L19.5,12.94 L16.33,12.94 L16.33,11.94 L19.42,11.94 L19.42,10.72 L16.33,10.72 L16.33,9.72 L19.5,9.7 Z M23.91,12.06 C24.8052704,11.9520565 25.4719426,11.1814873 25.45,10.28 C25.4572677,9.76612254 25.2408248,9.27445888 24.8569214,8.93278491 C24.4730181,8.59111095 23.9595647,8.43316689 23.45,8.5 L20.4,8.5 L20.4,14.14 L21.79,14.14 L21.79,12.14 L22.41,12.14 L24.09,14.14 L25.79,14.14 L23.91,12.06 Z M23.37,10.94 L21.79,10.94 L21.79,9.7 L23.37,9.7 C23.547113,9.68018972 23.7243302,9.73632071 23.8577417,9.85448518 C23.9911532,9.97264965 24.0682756,10.1417909 24.07,10.32 C24.0749432,10.5003853 23.9997654,10.6737022 23.8646804,10.7933489 C23.7295954,10.9129956 23.548468,10.9666919 23.37,10.94 L23.37,10.94 Z M26.11,8.5 L26.11,14.14 L27.48,14.14 L27.48,8.5 L26.11,8.5 Z M31.11,9.72 L32.58,9.72 L32.58,8.5 L31,8.5 C30.2562301,8.45298796 29.5291168,8.73370089 29.0098909,9.26831127 C28.490665,9.80292165 28.2312967,10.5379194 28.3,11.28 L28.3,11.36 C28.2164506,12.0914652 28.459562,12.8225695 28.9645028,13.3583463 C29.4694435,13.8941231 30.1848712,14.1800948 30.92,14.14 L31,14.14 L31.55,12.94 L31.1,12.94 C30.6849852,12.9613303 30.2819424,12.7971867 29.9999142,12.4919781 C29.7178859,12.1867694 29.5860227,11.7720421 29.64,11.36 L29.64,11.28 C29.5924566,10.871174 29.7272182,10.4621388 30.0084591,10.1616348 C30.2897,9.86113084 30.6889244,9.69960561 31.1,9.72 L31.11,9.72 Z M35.89,8.5 L34.09,8.5 L31.67,14.14 L33.13,14.14 L33.61,13 L36.28,13 L36.76,14.18 L38.3,14.18 L35.89,8.5 Z M34.05,11.86 L34.57,10.54 L34.93,9.66 L34.93,9.66 L35.27,10.54 L35.81,11.86 L34.05,11.86 Z M42.61,8.5 L42.61,11.5 L42.61,12.18 L42.61,12.18 L42.23,11.54 L40.23,8.54 L38.56,8.54 L38.56,14.18 L39.9,14.18 L39.9,11 L39.9,10.34 L39.9,10.34 L40.26,10.96 L42.35,14.14 L44,14.14 L44,8.5 L42.61,8.5 Z" id="Shape"></path>
                </g>
            </g>
        </g>
    </g>
</svg>