<?xml version="1.0" encoding="UTF-8"?>
<svg width="48px" height="32px" viewBox="0 0 48 32" version="1.1" xmlns="http://www.w3.org/2000/svg" xmlns:xlink="http://www.w3.org/1999/xlink">
    <title>discover-color-large</title>
    <g id="Cards" stroke="none" stroke-width="1" fill="none" fill-rule="evenodd">
        <g id="Payment-Methods" transform="translate(-545.000000, -192.000000)" fill-rule="nonzero">
            <g id="discover-color-large" transform="translate(545.000000, 192.000000)">
                <rect id="card_bg" fill="#FFFFFF" x="0" y="0" width="48" height="32" rx="4"></rect>
                <path d="M44,2 C45.1045695,2 46,2.8954305 46,4 L46,28 C46,29.1045695 45.1045695,30 44,30 L4,30 C2.8954305,30 2,29.1045695 2,28 L2,4 C2,2.8954305 2.8954305,2 4,2 L44,2 Z M44,0 L4,0 C1.790861,0 0,1.790861 0,4 L0,28 C0,30.209139 1.790861,32 4,32 L44,32 C46.209139,32 48,30.209139 48,28 L48,4 C48,1.790861 46.209139,0 44,0 Z" id="card_bg-2" fill="#231F20"></path>
                <g id="discover" transform="translate(4.000000, 10.000000)">
                    <path d="M42,7.72 L42,18 C42,19.1045695 41.1045695,20 40,20 L7.92,20 C30,16.22 42,7.72 42,7.72 Z" id="Path" fill="#EE7623"></path>
                    <path d="M1.83,0.64 L0,0.64 L0,7.05 L1.83,7.05 C2.65765485,7.08800738 3.47109443,6.82514918 4.12,6.31 C4.8472623,5.69964525 5.26808911,4.79944179 5.27,3.85 C5.28458385,2.95339474 4.91874613,2.09255869 4.26312805,1.48077554 C3.60750998,0.868992398 2.72345514,0.563504289 1.83,0.64 Z M3.29,5.45 C2.8169769,5.85551071 2.20072863,6.05371921 1.58,6 L1.25,6 L1.25,1.71 L1.58,1.71 C2.19624055,1.65134817 2.81073528,1.83821207 3.29,2.23 C3.74289244,2.63848831 4.00098434,3.22010386 4.00002374,3.83 C4.00287256,4.446065 3.74494218,5.03458221 3.29,5.45 Z" id="Shape" fill="#231F20"></path>
                    <rect id="Rectangle" fill="#231F20" x="5.85" y="0.63" width="1.25" height="6.42"></rect>
                    <path d="M10.17,3.09 C9.42,2.82 9.17,2.63 9.17,2.29 C9.17,1.95 9.56,1.57 10.1,1.57 C10.4939325,1.58653936 10.8602219,1.77700988 11.1,2.09 L11.75,1.24 C11.2368637,0.77100396 10.5651454,0.513750159 9.87,0.52 C9.35782614,0.487146003 8.85448555,0.665110388 8.47678625,1.01259374 C8.09908694,1.3600771 7.87986707,1.84686835 7.87,2.36 C7.87,3.25 8.27,3.7 9.44,4.12 C9.74075076,4.21634469 10.0319823,4.3402018 10.31,4.49 C10.5457091,4.62608566 10.6906516,4.87782791 10.69,5.15 C10.6881821,5.40677253 10.5791357,5.65110104 10.3892206,5.82392377 C10.1993055,5.99674649 9.94580575,6.08233504 9.69,6.06 C9.10681672,6.06633843 8.57428649,5.72959137 8.33,5.2 L7.52,5.98 C7.99270914,6.78035639 8.87185895,7.25077866 9.8,7.2 C10.3771943,7.23945514 10.9443761,7.03437714 11.3628672,6.63490845 C11.7813582,6.23543976 12.0125808,5.67840443 12,5.1 C12,4.08 11.59,3.61 10.17,3.09 Z" id="Path" fill="#231F20"></path>
                    <path d="M12.41,3.84 C12.401685,4.73797369 12.7574888,5.60101538 13.3962366,6.23222628 C14.0349843,6.86343718 14.9021883,7.20897249 15.8,7.19 C16.3453048,7.19322242 16.8835192,7.06638207 17.37,6.82 L17.37,5.35 C16.9922694,5.79163042 16.4411279,6.04712648 15.86,6.05 C15.2721728,6.06474321 14.7048574,5.83352579 14.2948043,5.4120823 C13.8847512,4.99063881 13.6691605,4.41720278 13.7,3.83 C13.6811468,3.25822936 13.8930874,2.70290961 14.2880957,2.28909136 C14.683104,1.87527312 15.2279711,1.63774674 15.8,1.63 C16.402665,1.63241302 16.9749533,1.89486373 17.37,2.35 L17.37,0.88 C16.8986922,0.618732402 16.368879,0.481118572 15.83,0.48 C14.9301144,0.469334336 14.0631309,0.817981809 13.4211647,1.44868548 C12.7791984,2.07938916 12.4152619,2.94006662 12.41,3.84 L12.41,3.84 Z" id="Path" fill="#231F20"></path>
                    <polygon id="Path" fill="#231F20" points="27.3 4.94 25.58 0.63 24.22 0.63 26.94 7.21 27.61 7.21 30.39 0.63 29.03 0.63"></polygon>
                    <polygon id="Path" fill="#231F20" points="30.95 7.05 34.51 7.05 34.51 5.96 32.2 5.96 32.2 4.23 34.42 4.23 34.42 3.14 32.2 3.14 32.2 1.72 34.51 1.72 34.51 0.63 30.95 0.63"></polygon>
                    <path d="M38,4.35 C38.8907586,4.21638204 39.5275704,3.41818645 39.46,2.52 C39.46,1.33 38.63,0.64 37.19,0.64 L35.34,0.64 L35.34,7.05 L36.59,7.05 L36.59,4.47 L36.74,4.47 L38.48,7.05 L40,7.05 L38,4.35 Z M37,3.58 L36.63,3.58 L36.63,1.64 L37,1.64 C37.77,1.64 38.19,1.96 38.19,2.64 C38.19,3.32 37.75,3.58 37,3.58 Z" id="Shape" fill="#231F20"></path>
                    <path d="M24.59,3.84 C24.59,5.723291 23.063291,7.25 21.18,7.25 C19.296709,7.25 17.77,5.723291 17.77,3.84 C17.77,1.956709 19.296709,0.43 21.18,0.43 C23.0610114,0.435492039 24.584508,1.95898858 24.59,3.84 L24.59,3.84 Z" id="Path" fill="#EE7623"></path>
                    <path d="M40,0.91 C40.0708951,0.890792125 40.1174527,0.823071975 40.11,0.75 C40.11,0.64 40.04,0.58 39.9,0.58 L39.71,0.58 L39.71,1.16 L39.84,1.16 L39.84,0.92 L40.02,1.16 L40.17,1.16 L40,0.91 Z M39.88,0.83 L39.88,0.83 L39.88,0.69 L39.88,0.69 C39.94,0.69 39.98,0.69 39.98,0.75 C39.98,0.81 40,0.83 39.9,0.83 L39.88,0.83 Z" id="Shape" fill="#231F20"></path>
                    <path d="M39.94,0.37 C39.8100351,0.37262527 39.6864393,0.42678529 39.5964161,0.520559467 C39.5063929,0.614333643 39.4573206,0.740036177 39.46,0.87 C39.46,1.14614237 39.6838576,1.37 39.96,1.37 C40.2361424,1.37 40.46,1.14614237 40.46,0.87 C40.463057,0.732947322 40.4085618,0.600881112 40.3097451,0.505865079 C40.2109284,0.410849047 40.0768275,0.361572844 39.94,0.37 Z M40.19,1.16 C40.1264632,1.23105045 40.0353087,1.27115844 39.94,1.27 C39.8348094,1.27003459 39.7340653,1.22757555 39.6606317,1.15225907 C39.5871982,1.0769426 39.5473028,0.975156007 39.55,0.87 C39.5473144,0.763904072 39.5869025,0.66108994 39.6600487,0.584192657 C39.7331949,0.507295373 39.8339024,0.462619264 39.94,0.46 C40.0452485,0.462559349 40.1449916,0.507561279 40.2165569,0.584776523 C40.2881223,0.661991767 40.3254301,0.764860534 40.32,0.87 C40.3211107,0.981015803 40.2736161,1.08696519 40.19,1.16 L40.19,1.16 Z" id="Shape" fill="#231F20"></path>
                </g>
            </g>
        </g>
    </g>
</svg>