<?xml version="1.0" encoding="UTF-8"?>
<svg width="24px" height="16px" viewBox="0 0 24 16" version="1.1" xmlns="http://www.w3.org/2000/svg" xmlns:xlink="http://www.w3.org/1999/xlink">
    <title>discover-color</title>
    <g id="Cards" stroke="none" stroke-width="1" fill="none" fill-rule="evenodd">
        <g id="Payment-Methods" transform="translate(-513.000000, -192.000000)" fill-rule="nonzero">
            <g id="discover-color" transform="translate(513.000000, 192.000000)">
                <rect id="card_bg" fill="#FFFFFF" x="0" y="0" width="24" height="16" rx="2"></rect>
                <path d="M22,1 C22.5522847,1 23,1.44771525 23,2 L23,14 C23,14.5522847 22.5522847,15 22,15 L2,15 C1.44771525,15 1,14.5522847 1,14 L1,2 C1,1.44771525 1.44771525,1 2,1 L22,1 Z M22,0 L2,0 C0.8954305,0 0,0.8954305 0,2 L0,14 C0,15.1045695 0.8954305,16 2,16 L22,16 C23.1045695,16 24,15.1045695 24,14 L24,2 C24,0.8954305 23.1045695,0 22,0 Z" id="card_bg-2" fill="#231F20"></path>
                <g id="discover" transform="translate(2.000000, 5.000000)">
                    <path d="M21,3.86 L21,9 C21,9.55228475 20.5522847,10 20,10 L4,10 C15,8.11 21,3.86 21,3.86 Z" id="Path" fill="#EE7623"></path>
                    <path d="M0.91,0.32 L0,0.32 L0,3.52 L0.91,3.52 C1.32443134,3.54444443 1.73348312,3.41639343 2.06,3.16 C2.59541815,2.71149151 2.78058527,1.96891842 2.51843861,1.32153014 C2.25629195,0.674141862 1.60663037,0.269615603 0.91,0.32 Z M1.65,2.72 C1.41360706,2.92687378 1.10287705,3.02804169 0.79,3 L0.63,3 L0.63,0.86 L0.79,0.86 C1.09984464,0.828761155 1.40935879,0.922335198 1.65,1.12 C1.87248964,1.32579781 1.99624611,1.6169895 1.99,1.92 C1.99496973,2.22276281 1.87142548,2.51345516 1.65,2.72 L1.65,2.72 Z" id="Shape" fill="#231F20"></path>
                    <rect id="Rectangle" fill="#231F20" x="2.93" y="0.32" width="1" height="3.21"></rect>
                    <path d="M5.08,1.55 C4.71,1.41 4.6,1.32 4.6,1.14 C4.6,0.96 4.79,0.79 5.06,0.79 C5.26183349,0.78996859 5.45146287,0.886642396 5.57,1.05 L5.9,0.62 C5.62751643,0.372269136 5.26786112,0.242793222 4.9,0.26 C4.37750629,0.258325543 3.94179703,0.659178065 3.9,1.18 C3.9,1.62 4.1,1.85 4.69,2.06 C4.94,2.15 5.06,2.21 5.13,2.24 C5.2427471,2.31640219 5.31019548,2.44380467 5.31,2.58 C5.29488976,2.80923739 5.10952943,2.99028702 4.88,3 C4.58552268,3.004575 4.31562328,2.83637683 4.19,2.57 L3.79,3 C4.02450319,3.38577149 4.44879854,3.61512032 4.9,3.6 C5.19099854,3.62969644 5.48040995,3.53049331 5.69199859,3.32852234 C5.90358724,3.12655136 6.01613683,2.84206443 6,2.55 C6,2 5.8,1.81 5.08,1.55 Z" id="Path" fill="#231F20"></path>
                    <path d="M6.21,1.92 C6.20451645,2.36896476 6.38113676,2.80100229 6.69956717,3.1175485 C7.01799758,3.43409471 7.45107569,3.60814791 7.9,3.6 C8.17121044,3.59796524 8.4382361,3.53292053 8.68,3.41 L8.68,2.67 C8.48861099,2.88207598 8.21565931,3.00217472 7.93,3 C7.63290781,3.02546061 7.33995242,2.91701351 7.13104965,2.70424217 C6.92214687,2.49147082 6.8190929,2.19657506 6.85,1.9 C6.84465008,1.61714718 6.95258998,1.34389181 7.14979583,1.1410515 C7.34700168,0.938211198 7.61710871,0.82261831 7.9,0.82 C8.20092451,0.816518266 8.48741556,0.948744903 8.68,1.18 L8.68,0.44 C8.44459301,0.308749407 8.17952395,0.239900303 7.91,0.239970198 C7.46178177,0.237339974 7.03086555,0.412846949 6.71205199,0.727909755 C6.39323844,1.04297256 6.21264433,1.47178168 6.21,1.92 L6.21,1.92 Z" id="Path" fill="#231F20"></path>
                    <polygon id="Path" fill="#231F20" points="13.65 2.47 12.79 0.32 12.11 0.32 13.47 3.61 13.81 3.61 15.19 0.32 14.52 0.32"></polygon>
                    <polygon id="Path" fill="#231F20" points="15.48 3.53 17.25 3.53 17.25 2.98 16.1 2.98 16.1 2.12 17.21 2.12 17.21 1.57 16.1 1.57 16.1 0.86 17.25 0.86 17.25 0.32 15.48 0.32"></polygon>
                    <path d="M19,2.18 C19.4448396,2.10860913 19.7615849,1.70942333 19.73,1.26 C19.73,0.66 19.32,0.32 18.59,0.32 L17.67,0.32 L17.67,3.52 L18.3,3.52 L18.3,2.23 L18.37,2.23 L19.24,3.52 L20,3.52 L19,2.18 Z M18.48,1.79 L18.3,1.79 L18.3,0.79 L18.49,0.79 C18.87,0.79 19.08,0.95 19.08,1.27 C19.08,1.59 18.87,1.79 18.48,1.79 Z" id="Shape" fill="#231F20"></path>
                    <path d="M12.3000294,1.92 C12.3040499,2.61252606 11.8899994,3.23911664 11.2513475,3.50694584 C10.6126956,3.77477505 9.87555993,3.63095336 9.38442773,3.14269328 C8.89329553,2.6544332 8.74515298,1.91815377 9.00923185,1.27794201 C9.27331072,0.637730258 9.8974621,0.22 10.59,0.22 C11.5282756,0.225391926 12.2891051,0.981772189 12.3000294,1.92 L12.3000294,1.92 Z" id="Path" fill="#EE7623"></path>
                    <path d="M20,0.45 C20.0347116,0.444991694 20.0603594,0.415069195 20.06,0.38 C20.06,0.32 20.06,0.29 19.95,0.29 L19.85,0.29 L19.85,0.58 L19.92,0.58 L19.92,0.46 L20.01,0.58 L20.09,0.58 L20,0.45 Z M19.94,0.45 L19.94,0.45 L19.94,0.35 L19.94,0.35 C19.94,0.35 19.99,0.35 19.99,0.35 C19.99,0.35 20,0.41 20,0.41 L19.94,0.45 Z" id="Shape" fill="#231F20"></path>
                    <path d="M20,0.18 C19.865849,0.185370294 19.7598926,0.295741615 19.76,0.43 C19.76,0.56254834 19.8674517,0.67 20,0.67 C20.1325483,0.67 20.24,0.56254834 20.24,0.43 C20.2401074,0.295741615 20.134151,0.185370294 20,0.18 L20,0.18 Z M20.13,0.58 C20.0985321,0.619354613 20.0503637,0.641586171 20,0.64 C19.9469331,0.637413149 19.8970763,0.613817616 19.8614307,0.574419869 C19.8257851,0.535022122 19.8072805,0.483060288 19.81,0.43 C19.81,0.362119533 19.8462138,0.29939539 19.905,0.265455154 C19.9637862,0.231514918 20.0362138,0.231514918 20.095,0.265455154 C20.1537862,0.29939539 20.19,0.362119533 20.19,0.43 C20.180927,0.489902141 20.1485852,0.543805174 20.1,0.58 L20.13,0.58 Z" id="Shape" fill="#231F20"></path>
                </g>
            </g>
        </g>
    </g>
</svg>